M48
;DRILL file {KiCad 4.0.1-stable} date 2/7/2016 5:33:23 PM
;FORMAT={-:-/ absolute / inch / decimal}
FMAT,2
INCH,TZ
T1C0.015
T2C0.032
T3C0.038
T4C0.040
T5C0.050
T6C0.055
T7C0.059
T8C0.079
T9C0.098
T10C0.118
T11C0.118
%
G90
G05
M72
T1
X1.07Y-2.17
X1.07Y-2.56
X1.07Y-3.02
X1.1Y-1.1
X1.1Y-1.3
X1.1Y-3.47
X1.1Y-3.91
X1.12Y-1.53
X1.15Y-5.39
X1.15Y-3.
X1.19Y-2.4
X1.2Y-1.83
X1.2Y-1.88
X1.2Y-1.93
X1.2Y-4.05
X1.2Y-4.525
X1.25Y-3.525
X1.28Y-2.39
X1.3Y-2.2
X1.31Y-5.82
X1.375Y-2.675
X1.375Y-2.725
X1.375Y-2.775
X1.375Y-3.2
X1.375Y-3.25
X1.375Y-3.3
X1.375Y-3.725
X1.375Y-3.775
X1.375Y-3.825
X1.375Y-4.45
X1.375Y-4.5
X1.4Y-2.1
X1.4Y-2.2575
X1.425Y-2.675
X1.425Y-2.725
X1.425Y-2.775
X1.425Y-3.2
X1.425Y-3.25
X1.425Y-3.3
X1.425Y-3.725
X1.425Y-3.775
X1.425Y-3.825
X1.425Y-4.45
X1.425Y-4.5
X1.475Y-2.675
X1.475Y-3.2
X1.475Y-3.725
X1.5Y-2.2
X1.525Y-2.675
X1.525Y-3.2
X1.525Y-3.725
X1.525Y-4.05
X1.525Y-4.625
X1.6Y-1.1
X1.675Y-4.45
X1.675Y-4.5
X1.7Y-5.376
X1.75Y-2.2
X1.8Y-4.125
X1.8Y-4.325
X1.8Y-4.725
X1.85Y-2.1
X1.85Y-2.2575
X1.88Y-5.44
X1.8925Y-3.325
X1.9Y-2.65
X1.9Y-3.7
X1.94Y-5.445
X1.95Y-2.2
X1.97Y-3.51
X1.99Y-5.44
X2.Y-2.41
X2.01Y-2.9
X2.01Y-3.38
X2.02Y-3.91
X2.05Y-4.05
X2.05Y-4.325
X2.05Y-4.725
X2.06Y-5.44
X2.077Y-5.387
X2.1Y-1.3
X2.14Y-3.3
X2.146Y-1.906
X2.15Y-4.6
X2.155Y-5.125
X2.175Y-3.575
X2.18Y-5.36
X2.2Y-2.3
X2.2Y-3.775
X2.24Y-5.27
X2.25Y-3.575
X2.25Y-3.95
X2.27Y-4.
X2.29Y-2.32
X2.3Y-1.66
X2.3Y-4.2
X2.3Y-5.326
X2.334Y-2.076
X2.339Y-1.995
X2.37Y-2.65
X2.37Y-3.15
X2.375Y-3.4
X2.375Y-3.45
X2.38Y-2.91
X2.39Y-5.51
X2.4Y-4.06
X2.42Y-3.54
X2.435Y-5.09
X2.45Y-3.73
X2.48Y-3.42
X2.49Y-5.25
X2.5Y-5.475
X2.52Y-3.835
X2.55Y-2.57
X2.55Y-5.425
X2.57Y-2.67
X2.575Y-3.575
X2.6015Y-5.4
X2.61Y-4.12
X2.73Y-2.56
X2.735Y-5.21
X2.78Y-5.35
X2.79Y-4.3
X2.79Y-4.41
X2.8Y-3.495
X2.82Y-4.79
X2.905Y-4.855
X2.911Y-2.253
X2.915Y-4.725
X2.92Y-1.94
X2.94Y-5.2
X2.9445Y-4.59
X3.Y-4.4
X3.05Y-4.03
X3.07Y-2.05
X3.09Y-5.355
X3.09Y-5.385
X3.1Y-4.
X3.1Y-4.4
X3.11Y-5.08
X3.12Y-1.67
X3.125Y-4.75
X3.15Y-4.
X3.156Y-4.828
X3.18Y-5.56
X3.1992Y-5.0759
X3.2Y-5.
X3.25Y-1.92
X3.25Y-2.39
X3.26Y-5.42
X3.3Y-4.295
X3.305Y-4.355
X3.32Y-4.61
X3.335Y-5.24
X3.34Y-5.1
X3.35Y-3.965
X3.38Y-2.28
X3.38Y-5.28
X3.38Y-5.42
X3.41Y-5.14
X3.42Y-5.92
X3.45Y-5.065
X3.46Y-4.85
X3.47Y-4.71
X3.475Y-4.4
X3.485Y-4.03
X3.53Y-4.9
X3.535Y-4.265
X3.55Y-3.84
X3.56Y-2.16
X3.57Y-5.28
X3.58Y-4.76
X3.595Y-4.625
X3.6Y-5.775
X3.63Y-5.5
X3.657Y-2.138
X3.67Y-4.145
X3.675Y-4.22
X3.675Y-5.
X3.68Y-4.51
X3.68Y-4.87
X3.69Y-4.38
X3.73Y-4.065
X3.73Y-4.47
X3.76Y-4.19
X3.76Y-4.63
X3.765Y-3.855
X3.775Y-3.8
X3.78Y-4.04
X3.78Y-4.32
X3.78Y-5.51
X3.81Y-3.975
X3.81Y-4.27
X3.82Y-4.385
X3.82Y-5.55
X3.845Y-3.67
X3.875Y-5.795
X3.88Y-3.765
X3.8898Y-5.6242
X3.89Y-3.71
X3.9Y-1.64
X3.9Y-5.46
X3.91Y-4.28
X3.915Y-4.385
X3.92Y-4.53
X3.948Y-2.225
X3.98Y-5.83
X3.99Y-3.82
X4.Y-4.58
X4.02Y-5.59
X4.11Y-2.36
X4.11Y-3.66
X4.11Y-4.53
X4.14Y-3.58
X4.15Y-4.09
X4.18Y-4.44
X4.21Y-1.75
X4.25Y-5.775
X4.2707Y-4.2445
X4.32Y-5.93
X4.395Y-3.985
X4.4Y-2.
X4.4Y-4.26
X4.47Y-4.58
X4.5Y-4.26
X4.51Y-4.6
X4.6Y-4.23
X4.62Y-5.12
X4.63Y-3.784
X4.63Y-4.62
X4.65Y-4.155
X4.7Y-1.1
X4.7Y-4.21
X4.7Y-5.35
X4.725Y-3.5
X4.73Y-4.56
X4.731Y-3.78
X4.74Y-5.93
X4.743Y-5.437
X4.79Y-4.59
X4.811Y-3.653
X4.83Y-3.98
X4.83Y-4.12
X4.83Y-4.56
X4.855Y-3.465
X4.89Y-4.58
X4.91Y-3.75
X4.92Y-4.8
X4.93Y-3.65
X4.93Y-5.64
X4.9431Y-3.7197
X4.95Y-2.925
X4.95Y-3.2
X4.95Y-3.425
X4.95Y-3.575
X4.95Y-3.98
X4.99Y-4.77
X4.99Y-5.48
X5.031Y-3.691
X5.04Y-4.8
X5.05Y-4.39
X5.075Y-3.575
X5.08Y-3.92
X5.1Y-2.
X5.1Y-3.475
X5.1Y-5.16
X5.1Y-5.41
X5.105Y-4.505
X5.14Y-3.9
X5.15Y-4.4
X5.175Y-3.45
X5.2Y-2.975
X5.21Y-5.34
X5.22Y-4.025
X5.225Y-4.5335
X5.2288Y-3.82
X5.245Y-5.206
X5.265Y-4.16
X5.275Y-3.575
X5.275Y-3.8
X5.3Y-3.425
X5.31Y-3.74
X5.32Y-3.695
X5.325Y-3.635
X5.35Y-2.925
X5.355Y-4.005
X5.4Y-3.45
X5.42Y-4.55
X5.45Y-3.7
X5.48Y-5.22
X5.49Y-4.46
X5.49Y-4.53
X5.5Y-1.1
X5.5Y-2.975
X5.5Y-3.475
X5.51Y-5.34
X5.525Y-3.557
X5.53Y-5.23
X5.57Y-5.33
X5.6Y-4.56
X5.62Y-5.28
X5.675Y-2.925
X5.675Y-3.175
X5.675Y-3.425
X5.675Y-3.725
X5.68Y-4.53
X5.685Y-5.3325
X5.71Y-4.48
X5.7625Y-3.475
X5.775Y-3.7
X5.78Y-4.62
X5.8Y-4.
X5.805Y-3.64
X5.827Y-5.2335
X5.84Y-5.45
X5.86Y-3.475
X5.9Y-1.8
X5.9Y-4.75
X5.9Y-5.04
X5.9Y-5.52
X5.9Y-5.6
X5.93Y-3.65
X5.95Y-2.925
X5.95Y-3.175
X5.95Y-3.425
X5.96Y-4.435
X5.9639Y-3.7235
X5.97Y-5.2
X5.975Y-3.575
X6.015Y-3.7507
X6.025Y-3.6917
X6.05Y-3.575
X6.055Y-4.115
X6.1Y-3.475
X6.13Y-3.89
X6.15Y-5.2
X6.17Y-3.98
X6.175Y-3.45
X6.175Y-3.846
X6.2Y-2.975
X6.2Y-4.2635
X6.2Y-4.4
X6.23Y-4.205
X6.236Y-3.812
X6.275Y-3.575
X6.3Y-1.1
X6.3Y-3.44
X6.3112Y-3.7488
X6.32Y-3.71
X6.32Y-3.83
X6.3237Y-3.6429
X6.3341Y-4.2495
X6.35Y-2.925
X6.35Y-5.23
X6.39Y-4.46
X6.42Y-5.24
X6.425Y-3.7
X6.4784Y-4.5765
X6.49Y-3.45
X6.5Y-2.975
X6.5Y-3.89
X6.525Y-3.545
X6.53Y-5.35
X6.55Y-4.54
X6.58Y-3.51
X6.6Y-3.89
X6.61Y-4.51
X6.675Y-2.925
X6.675Y-3.175
X6.675Y-3.45
X6.675Y-3.725
X6.68Y-4.24
X6.68Y-4.46
X6.7Y-2.
X6.7Y-5.3
X6.72Y-5.36
X6.74Y-4.24
X6.74Y-4.83
X6.76Y-4.7
X6.76Y-5.46
X6.79Y-3.74
X6.79Y-4.5
X6.79Y-5.92
X6.8Y-4.58
X6.8Y-5.61
X6.82Y-4.13
X6.84Y-5.33
X6.86Y-4.5
X6.87Y-3.34
X6.9Y-3.42
X6.9Y-3.86
X6.9Y-4.01
X6.91Y-5.46
X6.92Y-3.98
X6.93Y-4.46
X6.93Y-5.26
X6.94Y-5.08
X6.95Y-3.46
X6.982Y-4.313
X7.Y-3.54
X7.01Y-3.59
X7.026Y-4.331
X7.04Y-4.075
X7.09Y-3.58
X7.1Y-1.1
X7.1Y-3.65
X7.11Y-3.42
X7.13Y-4.51
X7.13Y-5.17
X7.14Y-4.3
X7.167Y-4.453
X7.17Y-3.52
X7.196Y-4.7
X7.206Y-3.804
X7.24Y-3.57
X7.27Y-5.23
X7.275Y-3.675
X7.275Y-4.569
X7.296Y-3.637
X7.297Y-4.484
X7.3Y-3.53
X7.326Y-4.434
X7.34Y-3.53
X7.35Y-4.57
X7.361Y-4.712
X7.37Y-3.8035
X7.3778Y-4.444
X7.39Y-3.54
X7.41Y-5.33
X7.439Y-4.444
X7.45Y-5.28
X7.48Y-5.23
X7.4823Y-3.8035
X7.5Y-2.
X7.5176Y-4.7195
X7.572Y-3.65
X7.584Y-4.712
X7.587Y-3.8035
X7.6Y-4.37
X7.6Y-4.502
X7.61Y-3.52
X7.62Y-4.29
X7.64Y-4.67
X7.68Y-5.47
X7.7Y-3.34
X7.71Y-5.34
X7.78Y-3.38
X7.786Y-4.264
X7.81Y-5.26
X7.82Y-3.35
X7.82Y-3.58
X7.82Y-4.39
X7.823Y-4.449
X7.86Y-3.49
X7.87Y-4.59
X7.889Y-4.449
X7.898Y-3.732
X7.9Y-1.1
X7.9Y-3.48
X7.9Y-3.66
X7.9Y-4.625
X7.906Y-4.198
X8.031Y-5.175
X8.06Y-3.63
X8.07Y-4.49
X8.09Y-4.56
X8.09Y-4.69
X8.1382Y-4.4763
X8.1386Y-3.6683
X8.14Y-3.58
X8.15Y-4.254
X8.152Y-3.835
X8.17Y-5.25
X8.194Y-3.65
X8.2Y-3.8
X8.21Y-4.71
X8.22Y-4.55
X8.2225Y-3.5215
X8.225Y-4.414
X8.26Y-3.58
X8.29Y-5.35
X8.3Y-1.8
X8.3Y-4.53
X8.31Y-3.58
X8.337Y-4.7195
X8.34Y-4.53
X8.35Y-3.65
X8.35Y-5.31
X8.38Y-5.26
X8.39Y-3.8
X8.44Y-3.8035
X8.46Y-3.51
X8.46Y-4.5625
X8.5Y-4.72
X8.503Y-4.264
X8.519Y-4.198
X8.52Y-5.45
X8.5255Y-3.688
X8.53Y-3.45
X8.57Y-4.5
X8.58Y-5.92
X8.6Y-5.3
X8.61Y-3.38
X8.61Y-3.675
X8.7Y-1.1
X8.7Y-3.69
X8.703Y-4.297
X8.71Y-3.35
X8.797Y-4.196
X8.829Y-3.667
X8.83Y-3.4
X8.845Y-4.556
X8.85Y-4.47
X8.87Y-3.58
X8.8862Y-3.653
X8.906Y-4.523
X8.9082Y-4.454
X8.919Y-3.618
X8.92Y-3.54
X8.925Y-5.175
X8.9605Y-4.44
X8.9758Y-4.351
X8.9789Y-3.6621
X8.98Y-4.58
X8.987Y-3.536
X8.99Y-4.68
X8.992Y-4.262
X9.0294Y-3.5755
X9.03Y-4.58
X9.05Y-5.23
X9.07Y-4.44
X9.081Y-3.541
X9.1Y-2.
X9.1089Y-4.2621
X9.109Y-3.666
X9.14Y-3.37
X9.153Y-4.265
X9.17Y-5.35
X9.229Y-3.54
X9.23Y-5.37
X9.24Y-5.31
X9.25Y-3.73
X9.259Y-4.295
X9.2638Y-3.5364
X9.2698Y-4.7115
X9.27Y-3.37
X9.29Y-3.74
X9.33Y-4.32
X9.34Y-3.41
X9.35Y-4.63
X9.36Y-4.45
X9.38Y-5.35
X9.43Y-3.74
X9.43Y-3.42
X9.46Y-3.35
X9.46Y-5.48
X9.47Y-3.53
X9.5Y-1.1
X9.54Y-5.32
X9.546Y-4.198
X9.55Y-3.77
X9.55Y-4.29
X9.57Y-4.7
X9.5935Y-4.5447
X9.61Y-4.68
X9.625Y-3.775
X9.63Y-4.52
X9.63Y-3.6
X9.68Y-3.59
X9.729Y-5.22
X9.74Y-3.79
X9.75Y-4.47
X9.75Y-4.71
X9.769Y-4.553
X9.774Y-3.53
X9.79Y-3.67
X9.83Y-3.7735
X9.84Y-3.62
X9.8564Y-4.6806
X9.87Y-4.47
X9.89Y-3.67
X9.9Y-2.
X9.9Y-3.78
X9.91Y-4.7
X9.92Y-5.28
X9.923Y-4.448
X9.933Y-3.529
X9.95Y-4.56
X9.971Y-3.846
X9.972Y-3.522
X9.973Y-4.426
X10.03Y-5.12
X10.11Y-5.35
X10.124Y-3.8135
X10.15Y-5.3
X10.1586Y-4.7111
X10.17Y-5.24
X10.26Y-5.43
X10.29Y-3.46
X10.3Y-1.1
X10.37Y-3.43
X10.37Y-4.53
X10.38Y-3.69
X10.413Y-4.7125
X10.446Y-4.198
X10.45Y-3.34
X10.45Y-4.29
X10.455Y-3.805
X10.496Y-4.7125
X10.5Y-5.74
X10.508Y-3.8135
X10.53Y-4.52
X10.553Y-3.615
X10.57Y-5.4
X10.573Y-3.5805
X10.58Y-4.5
X10.63Y-3.81
X10.637Y-3.655
X10.67Y-4.71
X10.675Y-3.531
X10.675Y-4.43
X10.68Y-3.78
X10.718Y-4.525
X10.735Y-3.78
X10.7457Y-4.6813
X10.79Y-4.71
X10.8Y-1.1
X10.816Y-4.435
X10.826Y-3.539
X10.85Y-3.66
X10.85Y-4.54
X10.868Y-4.444
X10.875Y-3.543
X10.9Y-5.54
X10.95Y-2.075
T2
X1.3Y-4.7
X1.4Y-4.7
X1.5Y-4.7
X1.8Y-4.6
X1.9Y-4.6
X2.2Y-2.8
X2.2Y-3.1
X2.2Y-3.4
X2.2Y-3.7
X2.4Y-3.8
X2.6Y-3.8
X2.9Y-3.8
X3.1Y-5.2
X3.2Y-2.3
X3.2Y-4.6
X3.3Y-5.
X3.4Y-5.
X3.5Y-5.
X3.6Y-5.
X3.7Y-4.
X4.3Y-3.65
X4.3Y-3.75
X4.3Y-3.85
X4.45Y-3.65
X4.45Y-3.75
X4.45Y-3.85
X4.605Y-3.84
X4.605Y-3.94
X4.755Y-3.84
X4.755Y-3.94
X4.9Y-3.925
X4.9Y-4.175
X5.Y-3.925
X5.Y-4.175
X5.52Y-3.955
X5.52Y-4.055
X5.68Y-3.955
X5.68Y-4.055
X5.9Y-3.925
X5.9Y-4.175
X6.Y-3.925
X6.Y-4.175
T3
X2.3Y-3.9
X2.3Y-4.5
X2.4Y-3.9
X2.4Y-4.
X2.4Y-4.5
X2.5Y-3.9
X2.5Y-4.5
X2.6Y-3.9
X2.6Y-4.
X2.6Y-4.5
X2.7Y-3.9
X2.7Y-4.
X2.7Y-4.5
X2.8Y-3.9
X2.8Y-4.
X2.8Y-4.5
X2.9Y-3.9
X2.9Y-4.1
X2.9Y-4.2
X2.9Y-4.5
X3.Y-3.9
X3.Y-4.1
X3.Y-4.2
X3.Y-4.5
X3.1Y-3.9
X3.1Y-4.1
X3.1Y-4.2
X3.1Y-4.5
X3.2Y-3.9
X3.2Y-4.1
X3.2Y-4.2
X3.2Y-4.5
X3.3Y-3.9
X3.3Y-4.1
X3.3Y-4.2
X3.3Y-4.5
X3.4Y-3.9
X3.4Y-4.1
X3.4Y-4.2
X3.4Y-4.5
X3.5Y-3.9
X3.5Y-4.1
X3.5Y-4.2
X3.5Y-4.5
X3.6Y-3.9
X3.6Y-4.
X3.6Y-4.1
X3.6Y-4.2
X3.6Y-4.3
X3.6Y-4.4
X3.6Y-4.5
T4
X1.1Y-2.4
X1.2Y-4.15
X1.2Y-4.7
X1.5Y-4.9
X1.5Y-5.
X1.5Y-5.1
X1.5Y-5.2
X1.5Y-5.8
X1.6Y-4.9
X1.6Y-5.
X1.6Y-5.1
X1.6Y-5.2
X1.6Y-5.8
X1.7Y-4.9
X1.7Y-5.
X1.7Y-5.1
X1.7Y-5.2
X1.7Y-5.8
X1.8Y-4.9
X1.8Y-5.
X1.8Y-5.1
X1.8Y-5.2
X1.8Y-5.8
X1.85Y-1.35
X1.85Y-1.45
X1.9Y-4.9
X1.9Y-5.
X1.9Y-5.1
X1.9Y-5.2
X1.9Y-5.8
X2.Y-4.6
X2.Y-4.9
X2.Y-5.
X2.Y-5.1
X2.Y-5.2
X2.Y-5.8
X2.1Y-5.8
X2.2Y-5.8
X2.3Y-4.8
X2.3Y-5.8
X2.4Y-4.8
X2.4Y-5.8
X2.5Y-4.8
X2.5Y-5.8
X2.6Y-2.8
X2.6Y-2.9
X2.6Y-3.
X2.6Y-3.1
X2.6Y-3.2
X2.6Y-3.3
X2.6Y-4.8
X2.6Y-5.8
X2.7Y-2.7
X2.7Y-2.8
X2.7Y-2.9
X2.7Y-3.
X2.7Y-3.1
X2.7Y-3.2
X2.7Y-3.3
X2.7Y-5.8
X2.8Y-2.7
X2.8Y-2.8
X2.8Y-2.9
X2.8Y-3.
X2.8Y-3.1
X2.8Y-3.2
X2.8Y-3.3
X2.8Y-5.8
X2.9Y-2.6
X2.9Y-2.7
X2.9Y-2.8
X2.9Y-2.9
X2.9Y-3.
X2.9Y-3.1
X2.9Y-3.2
X2.9Y-3.3
X2.9Y-5.8
X3.Y-2.6
X3.Y-2.7
X3.Y-2.8
X3.Y-2.9
X3.Y-3.
X3.Y-3.1
X3.Y-3.2
X3.Y-3.3
X3.Y-5.8
X3.1Y-2.6
X3.1Y-2.7
X3.1Y-2.8
X3.1Y-2.9
X3.1Y-3.
X3.1Y-3.1
X3.1Y-3.2
X3.1Y-3.3
X3.2Y-2.6
X3.2Y-2.7
X3.2Y-2.8
X3.2Y-2.9
X3.2Y-3.
X3.2Y-3.1
X3.2Y-3.2
X3.2Y-3.3
X3.3Y-2.6
X3.3Y-2.7
X3.3Y-2.8
X3.3Y-2.9
X3.3Y-3.
X3.3Y-3.1
X3.3Y-3.2
X3.3Y-3.3
X3.4Y-2.6
X3.4Y-2.7
X3.4Y-2.8
X3.4Y-2.9
X3.4Y-3.
X3.4Y-3.1
X3.4Y-3.2
X3.4Y-3.3
X3.5Y-2.5
X3.5Y-2.6
X3.5Y-2.7
X3.5Y-2.8
X3.5Y-2.9
X3.5Y-3.
X3.5Y-3.1
X3.5Y-3.2
X3.5Y-3.3
X3.6Y-2.5
X3.6Y-2.6
X3.6Y-2.7
X3.6Y-2.8
X3.6Y-2.9
X3.6Y-3.
X3.6Y-3.1
X3.6Y-3.2
X3.6Y-3.3
X3.7Y-2.5
X3.7Y-2.6
X3.7Y-2.7
X3.7Y-2.8
X3.7Y-2.9
X3.7Y-3.
X3.7Y-3.1
X3.7Y-3.2
X3.7Y-3.3
X3.8Y-2.5
X3.8Y-2.6
X3.8Y-2.7
X3.8Y-2.8
X3.8Y-2.9
X3.8Y-3.
X3.8Y-3.1
X3.8Y-3.2
X3.8Y-3.3
X3.8Y-4.8
X3.8Y-4.9
X3.8Y-5.
X3.8Y-5.1
X3.8Y-5.2
X3.9Y-2.5
X3.9Y-2.6
X3.9Y-2.7
X3.9Y-2.8
X3.9Y-2.9
X3.9Y-3.
X3.9Y-3.1
X3.9Y-3.2
X3.9Y-3.3
X3.9Y-4.8
X3.9Y-4.9
X3.9Y-5.
X3.9Y-5.1
X3.9Y-5.2
X4.Y-2.5
X4.Y-2.6
X4.Y-2.7
X4.Y-2.8
X4.Y-2.9
X4.Y-3.
X4.Y-3.1
X4.Y-3.2
X4.Y-3.3
X4.Y-4.8
X4.Y-4.9
X4.Y-5.
X4.Y-5.1
X4.Y-5.2
X4.1Y-2.5
X4.1Y-2.6
X4.1Y-2.7
X4.1Y-2.8
X4.1Y-2.9
X4.1Y-3.
X4.1Y-3.1
X4.1Y-3.2
X4.1Y-3.3
X4.1Y-4.8
X4.1Y-4.9
X4.1Y-5.
X4.1Y-5.1
X4.1Y-5.2
X4.2Y-2.5
X4.2Y-2.6
X4.2Y-2.7
X4.2Y-2.8
X4.2Y-2.9
X4.2Y-3.
X4.2Y-3.1
X4.2Y-3.2
X4.2Y-3.3
X4.2Y-4.8
X4.2Y-4.9
X4.2Y-5.
X4.2Y-5.1
X4.2Y-5.2
X4.3Y-2.4
X4.3Y-2.5
X4.3Y-2.6
X4.3Y-2.7
X4.3Y-2.8
X4.3Y-2.9
X4.3Y-3.
X4.3Y-3.1
X4.3Y-3.2
X4.3Y-3.3
X4.3Y-4.35
X4.3Y-4.8
X4.3Y-4.9
X4.3Y-5.
X4.3Y-5.1
X4.3Y-5.2
X4.3Y-5.3
X4.3Y-5.4
X4.4Y-2.3
X4.4Y-2.4
X4.4Y-2.5
X4.4Y-2.6
X4.4Y-2.7
X4.4Y-2.8
X4.4Y-2.9
X4.4Y-3.
X4.4Y-3.1
X4.4Y-3.2
X4.4Y-3.3
X4.4Y-4.35
X4.4Y-4.8
X4.4Y-4.9
X4.4Y-5.
X4.4Y-5.1
X4.4Y-5.2
X4.4Y-5.3
X4.4Y-5.4
X4.5Y-2.125
X4.5Y-2.3
X4.5Y-2.4
X4.5Y-2.5
X4.5Y-2.6
X4.5Y-2.7
X4.5Y-2.8
X4.5Y-2.9
X4.5Y-3.
X4.5Y-3.1
X4.5Y-3.2
X4.5Y-3.3
X4.5Y-4.35
X4.5Y-4.8
X4.5Y-4.9
X4.5Y-5.
X4.5Y-5.1
X4.5Y-5.2
X4.5Y-5.3
X4.5Y-5.4
X4.6Y-2.125
X4.6Y-2.3
X4.6Y-2.4
X4.6Y-2.5
X4.6Y-2.6
X4.6Y-2.7
X4.6Y-2.8
X4.6Y-2.9
X4.6Y-3.
X4.6Y-3.1
X4.6Y-3.2
X4.6Y-3.3
X4.6Y-4.35
X4.7Y-2.125
X4.7Y-2.3
X4.7Y-2.4
X4.7Y-2.5
X4.7Y-2.6
X4.7Y-2.7
X4.7Y-2.8
X4.7Y-2.9
X4.7Y-3.
X4.7Y-3.1
X4.7Y-3.2
X4.7Y-3.3
X4.7Y-4.35
X4.8Y-2.125
X4.8Y-2.3
X4.8Y-2.4
X4.8Y-2.5
X4.8Y-2.6
X4.8Y-2.7
X4.8Y-2.8
X4.8Y-2.9
X4.8Y-3.
X4.8Y-3.1
X4.8Y-3.2
X4.8Y-3.3
X4.9Y-2.125
X4.9Y-2.3
X4.9Y-2.4
X4.9Y-2.5
X4.9Y-2.6
X4.9Y-2.7
X4.9Y-2.8
X5.Y-2.125
X5.Y-2.3
X5.Y-2.4
X5.Y-2.5
X5.Y-2.6
X5.Y-2.7
X5.Y-2.8
X5.1Y-2.3
X5.1Y-2.4
X5.1Y-2.5
X5.1Y-2.6
X5.1Y-2.7
X5.1Y-2.8
X5.1Y-3.1
X5.1Y-4.9
X5.1Y-5.
X5.1Y-5.7
X5.1Y-5.8
X5.2Y-2.3
X5.2Y-2.4
X5.2Y-2.5
X5.2Y-2.6
X5.2Y-2.7
X5.2Y-2.8
X5.2Y-3.1
X5.2Y-4.9
X5.2Y-5.
X5.2Y-5.7
X5.2Y-5.8
X5.3Y-2.125
X5.3Y-2.3
X5.3Y-2.4
X5.3Y-2.5
X5.3Y-2.6
X5.3Y-2.7
X5.3Y-2.8
X5.3Y-3.1
X5.3Y-4.9
X5.3Y-5.
X5.3Y-5.7
X5.3Y-5.8
X5.4Y-2.125
X5.4Y-2.3
X5.4Y-2.4
X5.4Y-2.5
X5.4Y-2.6
X5.4Y-2.7
X5.4Y-2.8
X5.4Y-3.1
X5.4Y-3.8
X5.4Y-4.9
X5.4Y-5.
X5.4Y-5.7
X5.4Y-5.8
X5.5Y-2.125
X5.5Y-2.3
X5.5Y-2.4
X5.5Y-2.5
X5.5Y-2.6
X5.5Y-2.7
X5.5Y-2.8
X5.5Y-3.1
X5.5Y-3.8
X5.5Y-4.9
X5.5Y-5.
X5.5Y-5.7
X5.5Y-5.8
X5.6Y-2.125
X5.6Y-2.3
X5.6Y-2.4
X5.6Y-2.5
X5.6Y-2.6
X5.6Y-2.7
X5.6Y-2.8
X5.6Y-3.1
X5.6Y-3.8
X5.6Y-4.9
X5.6Y-5.
X5.6Y-5.7
X5.6Y-5.8
X5.7Y-2.125
X5.7Y-2.3
X5.7Y-2.4
X5.7Y-2.5
X5.7Y-2.6
X5.7Y-2.7
X5.7Y-2.8
X5.7Y-4.9
X5.7Y-5.
X5.7Y-5.7
X5.7Y-5.8
X5.8Y-2.125
X5.8Y-2.3
X5.8Y-2.4
X5.8Y-2.5
X5.8Y-2.6
X5.8Y-2.7
X5.8Y-2.8
X5.8Y-4.9
X5.8Y-5.
X5.8Y-5.7
X5.8Y-5.8
X5.9Y-2.3
X5.9Y-2.4
X5.9Y-2.5
X5.9Y-2.6
X5.9Y-2.7
X5.9Y-2.8
X6.Y-2.3
X6.Y-2.4
X6.Y-2.5
X6.Y-2.6
X6.Y-2.7
X6.Y-2.8
X6.Y-4.9
X6.Y-5.
X6.Y-5.7
X6.Y-5.8
X6.1Y-2.125
X6.1Y-2.3
X6.1Y-2.4
X6.1Y-2.5
X6.1Y-2.6
X6.1Y-2.7
X6.1Y-2.8
X6.1Y-3.1
X6.1Y-4.9
X6.1Y-5.
X6.1Y-5.7
X6.1Y-5.8
X6.2Y-2.125
X6.2Y-2.3
X6.2Y-2.4
X6.2Y-2.5
X6.2Y-2.6
X6.2Y-2.7
X6.2Y-2.8
X6.2Y-3.1
X6.2Y-4.9
X6.2Y-5.
X6.2Y-5.7
X6.2Y-5.8
X6.3Y-2.125
X6.3Y-2.3
X6.3Y-2.4
X6.3Y-2.5
X6.3Y-2.6
X6.3Y-2.7
X6.3Y-2.8
X6.3Y-3.1
X6.3Y-4.9
X6.3Y-5.
X6.3Y-5.7
X6.3Y-5.8
X6.352Y-4.104
X6.4Y-2.125
X6.4Y-2.3
X6.4Y-2.4
X6.4Y-2.5
X6.4Y-2.6
X6.4Y-2.7
X6.4Y-2.8
X6.4Y-3.1
X6.4Y-3.8
X6.4Y-4.9
X6.4Y-5.
X6.4Y-5.7
X6.4Y-5.8
X6.452Y-4.104
X6.5Y-2.125
X6.5Y-2.3
X6.5Y-2.4
X6.5Y-2.5
X6.5Y-2.6
X6.5Y-2.7
X6.5Y-2.8
X6.5Y-3.1
X6.5Y-3.8
X6.5Y-4.9
X6.5Y-5.
X6.5Y-5.7
X6.5Y-5.8
X6.552Y-4.104
X6.6Y-2.125
X6.6Y-2.3
X6.6Y-2.4
X6.6Y-2.5
X6.6Y-2.6
X6.6Y-2.7
X6.6Y-2.8
X6.6Y-3.1
X6.6Y-3.8
X6.6Y-4.9
X6.6Y-5.
X6.6Y-5.7
X6.6Y-5.8
X6.652Y-4.104
X6.7Y-2.3
X6.7Y-2.4
X6.7Y-2.5
X6.7Y-2.6
X6.7Y-2.7
X6.7Y-2.8
X6.7Y-4.9
X6.7Y-5.
X6.7Y-5.7
X6.7Y-5.8
X6.8Y-2.3
X6.8Y-2.4
X6.8Y-2.5
X6.8Y-2.6
X6.8Y-2.7
X6.8Y-2.8
X6.9Y-2.125
X6.9Y-2.3
X6.9Y-2.4
X6.9Y-2.5
X6.9Y-2.6
X6.9Y-2.7
X6.9Y-2.8
X6.9Y-2.9
X6.9Y-3.
X6.9Y-3.1
X6.9Y-3.2
X6.9Y-5.7
X6.9Y-5.8
X7.Y-2.125
X7.Y-2.3
X7.Y-2.4
X7.Y-2.5
X7.Y-2.6
X7.Y-2.7
X7.Y-2.8
X7.Y-2.9
X7.Y-3.
X7.Y-3.1
X7.Y-3.2
X7.Y-5.7
X7.Y-5.8
X7.1Y-2.125
X7.1Y-2.3
X7.1Y-2.4
X7.1Y-2.5
X7.1Y-2.6
X7.1Y-2.7
X7.1Y-2.8
X7.1Y-2.9
X7.1Y-3.
X7.1Y-3.1
X7.1Y-3.2
X7.1Y-5.7
X7.1Y-5.8
X7.2Y-2.125
X7.2Y-2.3
X7.2Y-2.4
X7.2Y-2.5
X7.2Y-2.6
X7.2Y-2.7
X7.2Y-2.8
X7.2Y-2.9
X7.2Y-3.
X7.2Y-3.1
X7.2Y-3.2
X7.2Y-5.7
X7.2Y-5.8
X7.3Y-2.125
X7.3Y-2.3
X7.3Y-2.4
X7.3Y-2.5
X7.3Y-2.6
X7.3Y-2.7
X7.3Y-2.8
X7.3Y-2.9
X7.3Y-3.
X7.3Y-3.1
X7.3Y-3.2
X7.3Y-5.7
X7.3Y-5.8
X7.35Y-3.9
X7.35Y-4.
X7.35Y-4.1
X7.35Y-4.8
X7.35Y-4.9
X7.35Y-5.
X7.4Y-2.125
X7.4Y-2.3
X7.4Y-2.4
X7.4Y-2.5
X7.4Y-2.6
X7.4Y-2.7
X7.4Y-2.8
X7.4Y-2.9
X7.4Y-3.
X7.4Y-3.1
X7.4Y-3.2
X7.4Y-5.7
X7.4Y-5.8
X7.45Y-3.9
X7.45Y-4.
X7.45Y-4.1
X7.45Y-4.8
X7.45Y-4.9
X7.45Y-5.
X7.5Y-2.3
X7.5Y-2.4
X7.5Y-2.5
X7.5Y-2.6
X7.5Y-2.7
X7.5Y-2.8
X7.5Y-2.9
X7.5Y-3.
X7.5Y-3.1
X7.5Y-3.2
X7.5Y-5.7
X7.5Y-5.8
X7.55Y-3.9
X7.55Y-4.
X7.55Y-4.1
X7.55Y-4.8
X7.55Y-4.9
X7.55Y-5.
X7.6Y-2.3
X7.6Y-2.4
X7.6Y-2.5
X7.6Y-2.6
X7.6Y-2.7
X7.6Y-2.8
X7.6Y-2.9
X7.6Y-3.
X7.6Y-3.1
X7.6Y-3.2
X7.6Y-5.7
X7.6Y-5.8
X7.65Y-3.9
X7.65Y-4.
X7.65Y-4.1
X7.65Y-4.8
X7.65Y-4.9
X7.65Y-5.
X7.7Y-2.125
X7.7Y-2.3
X7.7Y-2.4
X7.7Y-2.5
X7.7Y-2.6
X7.7Y-2.7
X7.7Y-2.8
X7.7Y-2.9
X7.7Y-3.
X7.7Y-3.1
X7.7Y-3.2
X7.75Y-3.9
X7.75Y-4.
X7.75Y-4.1
X7.75Y-4.8
X7.75Y-4.9
X7.75Y-5.
X7.8Y-2.125
X7.8Y-2.3
X7.8Y-2.4
X7.8Y-2.5
X7.8Y-2.6
X7.8Y-2.7
X7.8Y-2.8
X7.8Y-2.9
X7.8Y-3.
X7.8Y-3.1
X7.8Y-3.2
X7.8Y-5.7
X7.8Y-5.8
X7.85Y-3.9
X7.85Y-4.
X7.85Y-4.1
X7.85Y-4.8
X7.85Y-4.9
X7.85Y-5.
X7.9Y-2.125
X7.9Y-2.3
X7.9Y-2.4
X7.9Y-2.5
X7.9Y-2.6
X7.9Y-2.7
X7.9Y-2.8
X7.9Y-2.9
X7.9Y-3.
X7.9Y-3.1
X7.9Y-3.2
X7.9Y-5.7
X7.9Y-5.8
X7.95Y-3.9
X7.95Y-4.
X7.95Y-4.1
X7.95Y-4.8
X7.95Y-4.9
X7.95Y-5.
X8.Y-2.125
X8.Y-2.3
X8.Y-2.4
X8.Y-2.5
X8.Y-2.6
X8.Y-2.7
X8.Y-2.8
X8.Y-2.9
X8.Y-3.
X8.Y-3.1
X8.Y-3.2
X8.Y-5.7
X8.Y-5.8
X8.05Y-3.9
X8.05Y-4.
X8.05Y-4.1
X8.05Y-4.8
X8.05Y-4.9
X8.05Y-5.
X8.1Y-2.125
X8.1Y-2.3
X8.1Y-2.4
X8.1Y-2.5
X8.1Y-2.6
X8.1Y-2.7
X8.1Y-2.8
X8.1Y-2.9
X8.1Y-3.
X8.1Y-3.1
X8.1Y-3.2
X8.1Y-5.7
X8.1Y-5.8
X8.2Y-2.125
X8.2Y-2.3
X8.2Y-2.4
X8.2Y-2.5
X8.2Y-2.6
X8.2Y-2.7
X8.2Y-2.8
X8.2Y-2.9
X8.2Y-3.
X8.2Y-3.1
X8.2Y-3.2
X8.2Y-5.7
X8.2Y-5.8
X8.25Y-3.9
X8.25Y-4.
X8.25Y-4.1
X8.25Y-4.8
X8.25Y-4.9
X8.25Y-5.
X8.3Y-2.3
X8.3Y-2.4
X8.3Y-2.5
X8.3Y-2.6
X8.3Y-2.7
X8.3Y-2.8
X8.3Y-2.9
X8.3Y-3.
X8.3Y-3.1
X8.3Y-3.2
X8.3Y-5.7
X8.3Y-5.8
X8.35Y-3.9
X8.35Y-4.
X8.35Y-4.1
X8.35Y-4.8
X8.35Y-4.9
X8.35Y-5.
X8.4Y-2.3
X8.4Y-2.4
X8.4Y-2.5
X8.4Y-2.6
X8.4Y-2.7
X8.4Y-2.8
X8.4Y-2.9
X8.4Y-3.
X8.4Y-3.1
X8.4Y-3.2
X8.4Y-5.7
X8.4Y-5.8
X8.45Y-3.9
X8.45Y-4.
X8.45Y-4.1
X8.45Y-4.8
X8.45Y-4.9
X8.45Y-5.
X8.5Y-2.125
X8.5Y-2.3
X8.5Y-2.4
X8.5Y-2.5
X8.5Y-2.6
X8.5Y-2.7
X8.5Y-2.8
X8.5Y-2.9
X8.5Y-3.
X8.5Y-3.1
X8.5Y-3.2
X8.5Y-5.7
X8.5Y-5.8
X8.55Y-3.9
X8.55Y-4.
X8.55Y-4.1
X8.55Y-4.8
X8.55Y-4.9
X8.55Y-5.
X8.6Y-2.125
X8.6Y-2.3
X8.6Y-2.4
X8.6Y-2.5
X8.6Y-2.6
X8.6Y-2.7
X8.6Y-2.8
X8.6Y-2.9
X8.6Y-3.
X8.6Y-3.1
X8.6Y-3.2
X8.65Y-3.9
X8.65Y-4.
X8.65Y-4.1
X8.65Y-4.8
X8.65Y-4.9
X8.65Y-5.
X8.7Y-2.125
X8.7Y-2.3
X8.7Y-2.4
X8.7Y-2.5
X8.7Y-2.6
X8.7Y-2.7
X8.7Y-2.8
X8.7Y-2.9
X8.7Y-3.
X8.7Y-3.1
X8.7Y-3.2
X8.7Y-5.7
X8.7Y-5.8
X8.75Y-3.9
X8.75Y-4.
X8.75Y-4.1
X8.75Y-4.8
X8.75Y-4.9
X8.75Y-5.
X8.8Y-2.125
X8.8Y-2.3
X8.8Y-2.4
X8.8Y-2.5
X8.8Y-2.6
X8.8Y-2.7
X8.8Y-2.8
X8.8Y-2.9
X8.8Y-3.
X8.8Y-3.1
X8.8Y-3.2
X8.8Y-5.7
X8.8Y-5.8
X8.85Y-3.9
X8.85Y-4.
X8.85Y-4.1
X8.85Y-4.8
X8.85Y-4.9
X8.85Y-5.
X8.9Y-2.125
X8.9Y-2.3
X8.9Y-2.4
X8.9Y-2.5
X8.9Y-2.6
X8.9Y-2.7
X8.9Y-2.8
X8.9Y-2.9
X8.9Y-3.
X8.9Y-3.1
X8.9Y-3.2
X8.9Y-5.7
X8.9Y-5.8
X8.95Y-3.9
X8.95Y-4.
X8.95Y-4.1
X8.95Y-4.8
X8.95Y-4.9
X8.95Y-5.
X9.Y-2.125
X9.Y-2.3
X9.Y-2.4
X9.Y-2.5
X9.Y-2.6
X9.Y-2.7
X9.Y-2.8
X9.Y-2.9
X9.Y-3.
X9.Y-3.1
X9.Y-3.2
X9.Y-5.7
X9.Y-5.8
X9.1Y-2.3
X9.1Y-2.4
X9.1Y-2.5
X9.1Y-2.6
X9.1Y-2.7
X9.1Y-2.8
X9.1Y-2.9
X9.1Y-3.
X9.1Y-3.1
X9.1Y-3.2
X9.1Y-5.7
X9.1Y-5.8
X9.15Y-3.9
X9.15Y-4.
X9.15Y-4.1
X9.15Y-4.8
X9.15Y-4.9
X9.15Y-5.
X9.2Y-2.3
X9.2Y-2.4
X9.2Y-2.5
X9.2Y-2.6
X9.2Y-2.7
X9.2Y-2.8
X9.2Y-2.9
X9.2Y-3.
X9.2Y-3.1
X9.2Y-3.2
X9.2Y-5.7
X9.2Y-5.8
X9.25Y-3.9
X9.25Y-4.
X9.25Y-4.1
X9.25Y-4.8
X9.25Y-4.9
X9.25Y-5.
X9.3Y-2.125
X9.3Y-2.3
X9.3Y-2.4
X9.3Y-2.5
X9.3Y-2.6
X9.3Y-2.7
X9.3Y-2.8
X9.3Y-2.9
X9.3Y-3.
X9.3Y-3.1
X9.3Y-3.2
X9.3Y-5.7
X9.3Y-5.8
X9.35Y-3.9
X9.35Y-4.
X9.35Y-4.1
X9.35Y-4.8
X9.35Y-4.9
X9.35Y-5.
X9.4Y-2.125
X9.4Y-2.3
X9.4Y-2.4
X9.4Y-2.5
X9.4Y-2.6
X9.4Y-2.7
X9.4Y-2.8
X9.4Y-2.9
X9.4Y-3.
X9.4Y-3.1
X9.4Y-3.2
X9.4Y-5.7
X9.4Y-5.8
X9.45Y-3.9
X9.45Y-4.
X9.45Y-4.1
X9.45Y-4.8
X9.45Y-4.9
X9.45Y-5.
X9.5Y-2.125
X9.5Y-2.3
X9.5Y-2.4
X9.5Y-2.5
X9.5Y-2.6
X9.5Y-2.7
X9.5Y-2.8
X9.5Y-2.9
X9.5Y-3.
X9.5Y-3.1
X9.5Y-3.2
X9.55Y-3.9
X9.55Y-4.
X9.55Y-4.1
X9.55Y-4.8
X9.55Y-4.9
X9.55Y-5.
X9.6Y-2.125
X9.6Y-2.3
X9.6Y-2.4
X9.6Y-2.5
X9.6Y-2.6
X9.6Y-2.7
X9.6Y-2.8
X9.6Y-2.9
X9.6Y-3.
X9.6Y-3.1
X9.6Y-3.2
X9.6Y-5.7
X9.6Y-5.8
X9.65Y-3.9
X9.65Y-4.
X9.65Y-4.1
X9.65Y-4.8
X9.65Y-4.9
X9.65Y-5.
X9.7Y-2.125
X9.7Y-2.3
X9.7Y-2.4
X9.7Y-2.5
X9.7Y-2.6
X9.7Y-2.7
X9.7Y-2.8
X9.7Y-2.9
X9.7Y-3.
X9.7Y-3.1
X9.7Y-3.2
X9.7Y-5.7
X9.7Y-5.8
X9.75Y-3.9
X9.75Y-4.
X9.75Y-4.1
X9.75Y-4.8
X9.75Y-4.9
X9.75Y-5.
X9.8Y-2.125
X9.8Y-2.3
X9.8Y-2.4
X9.8Y-2.5
X9.8Y-2.6
X9.8Y-2.7
X9.8Y-2.8
X9.8Y-2.9
X9.8Y-3.
X9.8Y-3.1
X9.8Y-3.2
X9.8Y-5.7
X9.8Y-5.8
X9.85Y-3.9
X9.85Y-4.
X9.85Y-4.1
X9.85Y-4.8
X9.85Y-4.9
X9.85Y-5.
X9.9Y-2.3
X9.9Y-2.4
X9.9Y-2.5
X9.9Y-2.6
X9.9Y-2.7
X9.9Y-2.8
X9.9Y-2.9
X9.9Y-3.
X9.9Y-3.1
X9.9Y-3.2
X9.9Y-5.7
X9.9Y-5.8
X10.Y-2.3
X10.Y-2.4
X10.Y-2.5
X10.Y-2.6
X10.Y-2.7
X10.Y-2.8
X10.Y-2.9
X10.Y-3.
X10.Y-3.1
X10.Y-3.2
X10.Y-5.7
X10.Y-5.8
X10.05Y-3.9
X10.05Y-4.
X10.05Y-4.1
X10.05Y-4.8
X10.05Y-4.9
X10.05Y-5.
X10.1Y-2.125
X10.1Y-2.3
X10.1Y-2.4
X10.1Y-2.5
X10.1Y-2.6
X10.1Y-2.7
X10.1Y-2.8
X10.1Y-2.9
X10.1Y-3.
X10.1Y-3.1
X10.1Y-3.2
X10.1Y-5.7
X10.1Y-5.8
X10.15Y-3.9
X10.15Y-4.
X10.15Y-4.1
X10.15Y-4.8
X10.15Y-4.9
X10.15Y-5.
X10.2Y-2.125
X10.2Y-2.3
X10.2Y-2.4
X10.2Y-2.5
X10.2Y-2.6
X10.2Y-2.7
X10.2Y-2.8
X10.2Y-2.9
X10.2Y-3.
X10.2Y-3.1
X10.2Y-3.2
X10.2Y-5.7
X10.2Y-5.8
X10.25Y-3.9
X10.25Y-4.
X10.25Y-4.1
X10.25Y-4.8
X10.25Y-4.9
X10.25Y-5.
X10.3Y-2.125
X10.3Y-2.3
X10.3Y-2.4
X10.3Y-2.5
X10.3Y-2.6
X10.3Y-2.7
X10.3Y-2.8
X10.3Y-2.9
X10.3Y-3.
X10.3Y-3.1
X10.3Y-3.2
X10.3Y-5.7
X10.3Y-5.8
X10.35Y-3.9
X10.35Y-4.
X10.35Y-4.1
X10.35Y-4.8
X10.35Y-4.9
X10.35Y-5.
X10.4Y-2.125
X10.4Y-2.3
X10.4Y-2.4
X10.4Y-2.5
X10.4Y-2.6
X10.4Y-2.7
X10.4Y-2.8
X10.4Y-2.9
X10.4Y-3.
X10.4Y-3.1
X10.4Y-3.2
X10.45Y-3.9
X10.45Y-4.
X10.45Y-4.1
X10.45Y-4.8
X10.45Y-4.9
X10.45Y-5.
X10.45Y-5.2
X10.45Y-5.3
X10.45Y-5.4
X10.45Y-5.5
X10.45Y-5.6
X10.5Y-2.125
X10.5Y-2.3
X10.5Y-2.4
X10.5Y-2.5
X10.5Y-2.6
X10.5Y-2.7
X10.5Y-2.8
X10.5Y-2.9
X10.5Y-3.
X10.5Y-3.1
X10.5Y-3.2
X10.55Y-3.9
X10.55Y-4.
X10.55Y-4.1
X10.55Y-4.8
X10.55Y-4.9
X10.55Y-5.
X10.6Y-2.125
X10.6Y-2.3
X10.6Y-2.4
X10.6Y-2.5
X10.6Y-2.6
X10.6Y-2.7
X10.6Y-2.8
X10.6Y-2.9
X10.6Y-3.
X10.6Y-3.1
X10.6Y-3.2
X10.65Y-3.9
X10.65Y-4.
X10.65Y-4.1
X10.65Y-4.8
X10.65Y-4.9
X10.65Y-5.
X10.7Y-2.3
X10.7Y-2.4
X10.7Y-2.5
X10.7Y-2.6
X10.7Y-2.7
X10.7Y-2.8
X10.7Y-2.9
X10.7Y-3.
X10.7Y-3.1
X10.7Y-3.2
X10.75Y-3.9
X10.75Y-4.
X10.75Y-4.1
X10.75Y-4.8
X10.75Y-4.9
X10.75Y-5.
X10.8Y-2.3
X10.8Y-2.4
X10.8Y-2.5
X10.8Y-2.6
X10.8Y-2.7
X10.8Y-2.8
X10.8Y-2.9
X10.8Y-3.
X10.8Y-3.1
X10.8Y-3.2
X10.9Y-2.3
X10.9Y-2.4
X10.9Y-2.5
X10.9Y-2.6
X10.9Y-2.7
X10.9Y-2.8
X10.9Y-2.9
X10.9Y-3.
X10.9Y-3.1
X10.9Y-3.2
T5
X4.7Y-5.6
X4.9Y-5.
X4.9Y-5.8
X5.1Y-5.3
X6.8Y-3.3
X6.8Y-3.9
X6.9Y-4.1
X7.2Y-3.9
X7.2Y-4.1
X7.2Y-4.8
X7.2Y-5.
T6
X2.0126Y-1.4921
X2.1031Y-1.1102
X2.1031Y-1.5906
X2.3Y-1.4921
X2.4969Y-1.1102
X2.4969Y-1.5906
X2.5874Y-1.4921
X2.8126Y-1.4921
X2.9031Y-1.1102
X2.9031Y-1.5906
X3.1Y-1.4921
X3.2969Y-1.1102
X3.2969Y-1.5906
X3.3874Y-1.4921
X3.6126Y-1.4921
X3.7031Y-1.1102
X3.7031Y-1.5906
X3.9Y-1.4921
X4.0969Y-1.1102
X4.0969Y-1.5906
X4.1874Y-1.4921
T7
X4.5244Y-1.1673
X4.5244Y-1.4173
X4.5244Y-1.6673
X4.9654Y-1.1673
X4.9654Y-1.4173
X4.9654Y-1.6673
X5.3244Y-1.1673
X5.3244Y-1.4173
X5.3244Y-1.6673
X5.7654Y-1.1673
X5.7654Y-1.4173
X5.7654Y-1.6673
X6.1244Y-1.1673
X6.1244Y-1.4173
X6.1244Y-1.6673
X6.5654Y-1.1673
X6.5654Y-1.4173
X6.5654Y-1.6673
X6.9244Y-1.1673
X6.9244Y-1.4173
X6.9244Y-1.6673
X7.3654Y-1.1673
X7.3654Y-1.4173
X7.3654Y-1.6673
X7.7244Y-1.1673
X7.7244Y-1.4173
X7.7244Y-1.6673
X8.1654Y-1.1673
X8.1654Y-1.4173
X8.1654Y-1.6673
X8.5244Y-1.1673
X8.5244Y-1.4173
X8.5244Y-1.6673
X8.9654Y-1.1673
X8.9654Y-1.4173
X8.9654Y-1.6673
X9.3244Y-1.1673
X9.3244Y-1.4173
X9.3244Y-1.6673
X9.7654Y-1.1673
X9.7654Y-1.4173
X9.7654Y-1.6673
X10.1244Y-1.1673
X10.1244Y-1.4173
X10.1244Y-1.6673
X10.5654Y-1.1673
X10.5654Y-1.4173
X10.5654Y-1.6673
T8
X4.5154Y-1.2933
X4.9654Y-1.2933
X5.3154Y-1.2933
X5.7654Y-1.2933
X6.1154Y-1.2933
X6.5654Y-1.2933
X6.9154Y-1.2933
X7.3654Y-1.2933
X7.7154Y-1.2933
X8.1654Y-1.2933
X8.5154Y-1.2933
X8.9654Y-1.2933
X9.3154Y-1.2933
X9.7654Y-1.2933
X10.1154Y-1.2933
X10.5654Y-1.2933
T9
X4.5992Y-1.5433
X5.3992Y-1.5433
X6.1992Y-1.5433
X6.9992Y-1.5433
X7.7992Y-1.5433
X8.5992Y-1.5433
X9.3992Y-1.5433
X10.1992Y-1.5433
T10
X1.415Y-1.4212
X1.6Y-1.3031
X1.6Y-1.5393
T11
X1.25Y-1.25
X1.25Y-5.
X4.5Y-5.75
X5.95Y-1.95
X7.Y-4.9
X8.35Y-1.95
X10.75Y-5.75
X10.8Y-1.25
T0
M30
